<?xml version="1.0" encoding="utf-8"?>
<!-- Generator: Adobe Illustrator 22.0.1, SVG Export Plug-In . SVG Version: 6.00 Build 0)  -->
<svg version="1.1" id="Layer_1" xmlns="http://www.w3.org/2000/svg" xmlns:xlink="http://www.w3.org/1999/xlink" x="0px" y="0px"
	 viewBox="0 0 1366 191.5" style="enable-background:new 0 0 1366 191.5;" xml:space="preserve">
<path d="M1261.6,141c-1.5,2.1-2.9,3.2-4.3,3.2c-0.9,0-1.4-0.5-1.6-1.6c-0.1-0.2-0.1-1.1-0.1-2.6v-27.7h-6.8V142
	c0,2.6,0.2,4.5,0.6,5.6c0.7,1.9,2.2,2.8,4.4,2.8c2.5,0,5.1-1.5,7.8-4.6v4.1h6.8v-37.6h-6.8V141z"/>
<polygon points="1224.1,106.5 1232.2,106.5 1232.2,149.8 1239.7,149.8 1239.7,106.5 1247.9,106.5 1247.9,99.3 1224.1,99.3 "/>
<path d="M1287.5,139.1c0,3.4-1,5.1-2.9,5.1c-1.1,0-2.3-0.5-3.4-1.7v-22.9c1.1-1.1,2.3-1.7,3.4-1.7c2,0,2.9,1.7,2.9,5.1V139.1z
	 M1288.2,111.8c-2.5,0-4.8,1.4-7,4.1V99.3h-6.8v50.5h6.8v-3.6c2.3,2.8,4.6,4.2,7,4.2c2.7,0,4.5-1.4,5.4-4.2c0.5-1.6,0.7-4.1,0.7-7.6
	v-15c0-3.6-0.2-6-0.7-7.6C1292.7,113.2,1290.9,111.8,1288.2,111.8"/>
<path d="M1331,126c0,6.9-0.3,13.9-0.8,20.8c0,9.2-7.6,16.7-16.9,16.7c-12.7,0.5-25.6,0.8-38.8,0.8h-2.1h-2.1
	c-13.2,0-26.1-0.3-38.8-0.8c-9.3,0-16.9-7.5-16.9-16.7c-0.5-6.9-0.8-13.9-0.8-20.8l0,0c0-0.2,0-0.4,0-0.5c0-0.2,0-0.4,0-0.6l0,0
	c0-6.9,0.3-13.9,0.8-20.8c0-9.2,7.6-16.7,16.9-16.7c12.7-0.5,25.6-0.8,38.8-0.8h2.1h2.1c13.2,0,26.1,0.3,38.8,0.8
	c9.3,0,16.9,7.5,16.9,16.7c0.5,6.9,0.8,13.9,0.8,20.8l0,0c0,0.2,0,0.4,0,0.5C1331,125.6,1331,125.8,1331,126L1331,126z M1238.6,25
	l5.5,20.2l5.2-20.2h7.8l-9.3,30.6v20.8h-7.7V55.6c-0.7-3.7-2.2-9.1-4.7-16.3c-1.6-4.8-3.3-9.6-4.9-14.3H1238.6z M1258.7,50.6
	c0-4.1,0.7-7.1,2.2-9c1.9-2.6,4.6-3.9,8.1-3.9s6.2,1.3,8.1,3.9c1.5,1.9,2.2,4.9,2.2,9V64c0,4.1-0.7,7.1-2.2,9
	c-1.9,2.6-4.6,3.9-8.1,3.9s-6.2-1.3-8.1-3.9c-1.5-1.9-2.2-4.9-2.2-9V50.6z M1285,38.1h6.9v28.2c0,1.6,0,2.5,0.1,2.7
	c0.2,1.1,0.7,1.6,1.6,1.6c1.4,0,2.9-1.1,4.4-3.2V38.1h6.9v38.3h-6.9v-4.2c-2.8,3.2-5.4,4.7-7.9,4.7c-2.2,0-3.8-0.9-4.5-2.9
	c-0.4-1.2-0.6-3-0.6-5.7V38.1z M1179,188.6h187V1.6h-187V188.6z"/>
<path d="M1313.2,126.6h-6.8v-3.5c0-3.5,1.1-5.2,3.4-5.2s3.4,1.7,3.4,5.2V126.6z M1309.9,111.8c-3.5,0-6.2,1.3-8.2,3.9
	c-1.4,1.9-2.1,4.8-2.1,8.9v13.2c0,4,0.8,7,2.2,8.9c2,2.6,4.7,3.9,8.2,3.9s6.4-1.4,8.2-4.1c0.8-1.2,1.4-2.6,1.6-4.1
	c0.1-0.7,0.2-2.2,0.2-4.4v-1h-7c0,2.7-0.1,4.2-0.2,4.6c-0.4,1.8-1.4,2.7-3,2.7c-2.3,0-3.5-1.7-3.5-5.2v-6.7h13.6v-7.8
	c0-4-0.7-7-2.1-8.9C1316,113,1313.3,111.8,1309.9,111.8"/>
<path d="M1269,43.9c-2.2,0-3.3,1.8-3.3,5.3v16.1c0,3.5,1.1,5.3,3.3,5.3c2.2,0,3.3-1.8,3.3-5.3V49.2
	C1272.3,45.7,1271.2,43.9,1269,43.9"/>
<path d="M941.9,141h-2.1v12.3h2c4.2,0,6.1-2.5,6.1-6.1C947.8,143,946.1,141,941.9,141"/>
<path d="M880.4,140.8c-3.2,0-4.6,2.8-4.6,6.4s1.3,6.4,4.6,6.4c3.2,0,4.6-2.8,4.6-6.4S883.6,140.8,880.4,140.8"/>
<path d="M997.9,140.8c-3.2,0-4.6,2.8-4.6,6.4s1.3,6.4,4.6,6.4c3.2,0,4.6-2.8,4.6-6.4S1001.1,140.8,997.9,140.8"/>
<path d="M1031.9,127.8c-0.5,0-74.5,0-74.5,0c-1.6-0.2-2.9-1.5-2.9-3.2V39.2c0-1.6,0.6-2.4,2.6-3.2c5.2-2,11.1-3.2,17.2-3.2
	c24.8,0,45.1,19,47.2,43.2c3.2-1.3,6.7-2.1,10.4-2.1c14.8,0,26.9,12,26.9,26.9C1058.8,115.8,1046.8,127.8,1031.9,127.8
	 M1037.8,157.2h-6v-20.1h6.3c5.7,0,10,2.7,10,10C1048.1,154.2,1043,157.2,1037.8,157.2 M1026.8,148.3c0,5.8-3,9.2-8.1,9.2
	c-4.8,0-8.1-3.3-8.1-9.1v-11.3h4v11.2c0,3.2,1.5,5.2,4.1,5.2s4.1-2,4.1-5.2V137h4V148.3z M997.9,157.5c-5.5,0-8.7-4.2-8.7-10.3
	s3.2-10.3,8.7-10.3s8.7,4.2,8.7,10.3C1006.6,153.2,1003.4,157.5,997.9,157.5 M987.3,157.2h-12.1v-20.1h4v16.1h8L987.3,157.2
	L987.3,157.2z M964.4,153.5c1.8,0,2.9-0.8,3.9-2.6l3.4,2c-1.4,2.8-3.8,4.5-7.4,4.5c-5.2,0-8.8-4-8.8-10.3c0-6.1,3.7-10.3,8.9-10.3
	c3.8,0,6.1,1.8,7.3,4.4l-3.7,1.7c-0.7-1.4-1.9-2.2-3.7-2.2c-3,0-4.7,2.6-4.7,6.4C959.7,150.7,961.4,153.5,964.4,153.5 M951.9,124.7
	L951.9,124.7c0,1.6-1.4,2.9-3,2.9s-2.9-1.3-3-2.9l-1.2-22l1.2-60.6c0-1.6,1.4-3,3-3s2.9,1.3,3,2.9l1.3,60.6L951.9,124.7z
	 M941.7,157.2h-6v-20.1h6.3c5.7,0,10,2.7,10,10C952,154.2,946.9,157.2,941.7,157.2 M933.2,125.1L933.2,125.1c0,1.4-1.2,2.6-2.6,2.6
	s-2.6-1.1-2.6-2.6l-1.2-22.5L928,56c0-1.4,1.2-2.6,2.6-2.6s2.6,1.1,2.6,2.6l1.3,46.7L933.2,125.1z M930.6,157.2H927l-7.4-10.9
	c-0.5-0.8-1.1-1.8-1.4-2.3c0,0.7,0.1,3.3,0.1,4.4v8.8h-4v-20.1h3.8l7.1,10.6c0.5,0.8,1.1,1.7,1.4,2.3c0-0.8-0.1-3.3-0.1-4.4v-8.5h4
	v20.1H930.6z M912.3,127.7c-1.2,0-2.2-1-2.2-2.2l-1.4-22.8l1.4-49.7c0-1.2,1-2.2,2.2-2.2s2.2,1,2.2,2.2l1.6,49.7l-1.6,22.8l0,0
	C914.5,126.7,913.5,127.7,912.3,127.7 M909.3,148.3c0,5.8-3,9.2-8.1,9.2c-4.8,0-8.1-3.3-8.1-9.1v-11.3h4v11.2c0,3.2,1.5,5.2,4.1,5.2
	s4.1-2,4.1-5.2V137h4V148.3z M891,102.7l1.6-44.4c0-1,0.9-1.8,1.8-1.8c1,0,1.8,0.8,1.8,1.8l1.8,44.4l-1.8,23.2l0,0l0,0l0,0
	c-0.1,1-0.9,1.8-1.8,1.8c-1,0-1.8-0.8-1.8-1.8L891,102.7z M887.2,126L887.2,126c0,0.9-0.8,1.6-1.7,1.6s-1.6-0.7-1.7-1.6l-1.7-23.3
	l1.7-36.1c0-0.9,0.8-1.6,1.7-1.6s1.6,0.7,1.7,1.6l1.9,36.1L887.2,126z M880.4,157.5c-5.5,0-8.7-4.2-8.7-10.3s3.2-10.3,8.7-10.3
	s8.7,4.2,8.7,10.3C889.1,153.2,885.9,157.5,880.4,157.5 M869.3,125.8c-0.1,0.7-0.6,1.3-1.3,1.3s-1.2-0.5-1.3-1.3l-1.9-23.2l1.9-23.9
	c0.1-0.7,0.6-1.3,1.3-1.3s1.2,0.5,1.3,1.3l2.2,23.9L869.3,125.8z M860.7,157.5c-3.4,0-6.3-1.4-7.8-3.6l2.9-2.6
	c1.4,1.6,3.2,2.3,5.1,2.3c2.4,0,3.5-0.7,3.5-2.2c0-1.3-0.7-1.9-4.5-2.7c-3.7-0.9-6.3-2-6.3-6c0-3.6,3.2-5.9,7.2-5.9
	c3.1,0,5.4,1.2,7.3,3.2l-2.9,2.8c-1.3-1.3-2.7-2.1-4.6-2.1c-2.1,0-2.9,0.9-2.9,1.8c0,1.3,0.9,1.7,4,2.4c3.2,0.7,6.7,1.8,6.7,6.2
	C868.6,154.9,866.2,157.5,860.7,157.5 M850.8,122.7c-0.5,0-0.8-0.4-0.9-0.9l-2.2-19.2l2.2-19.6c0.1-0.5,0.4-0.9,0.9-0.9
	s0.8,0.4,0.9,0.9l2.4,19.6l-2.4,19.2C851.6,122.4,851.2,122.7,850.8,122.7 M843.6,114.6c-0.1,0.5-0.4,0.9-0.9,0.9s-0.8-0.4-0.9-0.9
	l-1.6-11.9l1.6-12.1c0.1-0.5,0.4-0.9,0.9-0.9c0.4,0,0.8,0.3,0.9,0.9l1.9,12.1L843.6,114.6z M858.3,79.4c0.1-0.6,0.5-1.1,1.1-1.1
	s1,0.4,1.1,1.1l2.3,23.3l-2.3,22.4c-0.1,0.6-0.5,1.1-1.1,1.1s-1-0.5-1.1-1.1l-2-22.4L858.3,79.4z M875.3,80.5c0-0.8,0.7-1.5,1.5-1.5
	s1.4,0.6,1.5,1.4l2.1,22.2l-2.1,23.3l0,0c-0.1,0.8-0.7,1.4-1.5,1.4s-1.4-0.6-1.5-1.4l-1.8-23.3L875.3,80.5z M901.3,54.6
	c0-1.1,0.9-2,2-2s2,0.9,2,2l1.7,48.1l-1.7,23l0,0c0,1.1-0.9,2-2,2s-2-0.9-2-2l-1.5-23L901.3,54.6z M919,54.2c0-1.3,1.1-2.4,2.4-2.4
	c1.3,0,2.4,1,2.4,2.4l1.4,48.4l-1.4,22.6l0,0c0,1.3-1.1,2.4-2.4,2.4c-1.3,0-2.4-1.1-2.4-2.4l-1.3-22.6L919,54.2z M937,47.2
	c0-1.5,1.3-2.8,2.8-2.8s2.8,1.2,2.8,2.8l1.2,55.5l-1.2,22.3l0,0c0,1.5-1.3,2.8-2.8,2.8s-2.7-1.2-2.8-2.8l-1-22.3L937,47.2z
	 M799.5,188.6h300V1.7h-300V188.6z"/>
<path d="M1038,141h-2.1v12.3h2c4.2,0,6.1-2.5,6.1-6.1C1043.9,143,1042.2,141,1038,141"/>
<path d="M245.9,1.7v186.9h487.6V1.7H245.9z M329.9,58.8c0-4.5,1.6-8.7,4.9-12.6c1.6-2,3.7-3.6,6.2-5c2.5-1.3,4.9-2,7.2-2.1
	c0.1,0.3,0.1,0.6,0.1,0.9c0,0.3,0,0.6,0,0.9c0,4.7-1.6,9-4.8,13.1c-3.9,4.9-8.4,7-13.5,6.5c-0.1-0.3-0.1-0.6-0.1-0.9
	C329.9,59.4,329.9,59.1,329.9,58.8z M366.4,109.7c-0.2,0.7-0.5,1.4-0.8,2.1c-0.7,1.7-1.4,3.3-2.2,4.8c-0.8,1.5-1.7,2.9-2.5,4.2
	c-1.2,1.8-2.3,3.4-3.3,4.7c-1,1.3-1.9,2.3-2.8,3.1c-2.4,2.3-5,3.5-7.8,3.6c-1.9,0-4.3-0.6-7.3-1.9c-2.7-1.2-5.3-1.8-7.7-1.8
	c-2.7,0-5.4,0.6-8,1.8c-2.9,1.2-5.2,1.9-6.9,2c-2.7,0.1-5.4-1.1-8-3.7c-1.8-1.7-4-4.4-6.4-8c-2.7-4-5-8.7-6.7-14.1
	c-1.9-5.6-2.8-11.2-2.8-16.8c0-6.2,1.3-11.6,3.8-16.1c2-3.6,4.7-6.5,8-8.5c3.3-2.1,7-3.2,10.8-3.2c2.3,0,5.1,0.7,8.4,2.1
	c3.3,1.4,5.5,2.1,6.7,2.1c0.5,0,3-0.8,7.4-2.4c4.1-1.5,7.4-2.1,10-1.9c7.4,0.7,12.9,3.8,16.7,9.3c-6.7,4.2-10,10.2-9.8,17.8
	c0.1,5.9,2.1,10.8,6.1,14.8c1.8,1.8,3.9,3.2,6.1,4.2C366.9,108.3,366.7,109,366.4,109.7z M454,131.2h-12.8V87h-0.6l-15.4,35.1h-8.9
	L400.8,87h-0.6v44.2h-12.7V62.9h14.5l18.5,42.3h0.4l18.5-42.3H454V131.2z M522.6,108c0,14.6-10.4,24.5-27.4,24.5
	c-17.1,0-27.4-9.9-27.4-24.5V62.9H482V106c0,9.2,5.4,14.2,13.3,14.2c7.9,0,13.2-5,13.2-14.2V62.9h14.2V108z M561,132.5
	c-19.7,0-26.1-11.2-26.3-20.9h13.7c0.4,5.1,4.9,9.6,13.4,9.6c7.9,0,12.1-3.6,12.1-8.9c0-4.6-3.4-6.9-10.2-8.4l-10.1-2.3
	c-9.4-2.1-17.3-7.5-17.3-19.1c0-13.4,11.2-20.8,25.4-20.8c15,0,25,8.4,25.2,20.4h-13.3c-0.3-4.8-4.2-9.3-12-9.3
	c-6.9,0-11.1,3.3-11.1,8.5c0,4,3.1,6.6,9.1,7.9l10.2,2.3c9.8,2.1,18.1,7,18.1,19.4C587.9,124.2,577.6,132.5,561,132.5z M616.3,131.2
	h-14.2V62.9h14.2V131.2z M685.9,87.3h-13.7c0-7-4.5-13.5-12.9-13.5c-8.5,0-14,6.4-14,19.6v7.7c0,13.2,5.5,19.3,14.1,19.3
	c8.4,0,12.8-5.8,12.8-12.9h13.7v1.5c0,12.4-9.7,23.6-26.7,23.6c-17.8,0-28.3-11.6-28.3-31.5v-7.7c0-20,10.6-31.6,28.4-31.6
	c16.6,0,26.7,11,26.7,24.2V87.3z"/>
<g>
	<path d="M118.5,115.6c-15.1-9.2-33.8-11.4-55.6-6.4c-1.9,0.4-3.1,2.4-2.7,4.3c0.4,1.9,2.3,3.1,4.3,2.7c19.9-4.5,36.8-2.7,50.3,5.5
		c1.7,1,3.9,0.5,4.9-1.2C120.7,118.8,120.2,116.6,118.5,115.6z"/>
	<path d="M132.8,79.5c-21.2-12.6-54.8-13.8-75-7.7c-2.8,0.9-4.4,3.8-3.6,6.7c0.9,2.8,3.8,4.4,6.7,3.6c17.6-5.3,48-4.3,66.5,6.6
		c2.5,1.5,5.8,0.7,7.3-1.9C136.1,84.2,135.3,81,132.8,79.5z"/>
	<path d="M125.2,98.7C107.6,87.9,81.7,84.8,61,91.1c-2.4,0.7-3.7,3.2-3,5.6c0.7,2.4,3.2,3.7,5.6,3c18.2-5.5,41.6-2.8,57,6.7
		c2.1,1.3,4.8,0.6,6.1-1.5C128,102.8,127.3,100,125.2,98.7z"/>
	<path d="M0,1.7v186.9h186.9V1.7H0z M93.5,152.4c-31.6,0-57.2-25.6-57.2-57.2c0-31.6,25.6-57.2,57.2-57.2
		c31.6,0,57.2,25.6,57.2,57.2C150.7,126.7,125,152.4,93.5,152.4z"/>
</g>
</svg>
