<?xml version="1.0" encoding="utf-8"?>
<!-- Generator: Adobe Illustrator 22.1.0, SVG Export Plug-In . SVG Version: 6.00 Build 0)  -->
<svg version="1.1" id="Layer_1" xmlns="http://www.w3.org/2000/svg" xmlns:xlink="http://www.w3.org/1999/xlink" x="0px" y="0px"
	 viewBox="0 0 186.9 186.9" style="enable-background:new 0 0 186.9 186.9;" xml:space="preserve">
<g>
	<path d="M118.5,113.9c-15.1-9.2-33.8-11.4-55.6-6.4c-1.9,0.4-3.1,2.4-2.7,4.3c0.4,1.9,2.3,3.1,4.3,2.7c19.9-4.5,36.8-2.7,50.3,5.5
		c1.7,1,3.9,0.5,4.9-1.2C120.7,117.1,120.2,114.9,118.5,113.9z"/>
	<path d="M132.8,77.8C111.6,65.2,78,64,57.8,70.1c-2.8,0.9-4.4,3.8-3.6,6.7c0.9,2.8,3.8,4.4,6.7,3.6c17.6-5.3,48-4.3,66.5,6.6
		c2.5,1.5,5.8,0.7,7.3-1.9C136.1,82.5,135.3,79.3,132.8,77.8z"/>
	<path d="M125.2,97C107.6,86.2,81.7,83.1,61,89.4c-2.4,0.7-3.7,3.2-3,5.6s3.2,3.7,5.6,3c18.2-5.5,41.6-2.8,57,6.7
		c2.1,1.3,4.8,0.6,6.1-1.5C128,101.1,127.3,98.3,125.2,97z"/>
	<path d="M0,0v186.9h186.9V0H0z M93.5,150.7c-31.6,0-57.2-25.6-57.2-57.2s25.6-57.2,57.2-57.2s57.2,25.6,57.2,57.2
		C150.7,125,125,150.7,93.5,150.7z"/>
</g>
</svg>
