<?xml version="1.0" encoding="utf-8"?>
<!-- Generator: Adobe Illustrator 22.1.0, SVG Export Plug-In . SVG Version: 6.00 Build 0)  -->
<svg version="1.1" id="Layer_1" xmlns="http://www.w3.org/2000/svg" xmlns:xlink="http://www.w3.org/1999/xlink" x="0px" y="0px"
	 viewBox="0 0 187 187" style="enable-background:new 0 0 187 187;" xml:space="preserve">
<path d="M82.6,139.4c-1.5,2.1-2.9,3.2-4.3,3.2c-0.9,0-1.4-0.5-1.6-1.6c-0.1-0.2-0.1-1.1-0.1-2.6v-27.7h-6.8v29.7
	c0,2.6,0.2,4.5,0.6,5.6c0.7,1.9,2.2,2.8,4.4,2.8c2.5,0,5.1-1.5,7.8-4.6v4.1h6.8v-37.6h-6.8V139.4z"/>
<polygon points="45.1,104.9 53.2,104.9 53.2,148.2 60.7,148.2 60.7,104.9 68.9,104.9 68.9,97.7 45.1,97.7 "/>
<path d="M108.5,137.5c0,3.4-1,5.1-2.9,5.1c-1.1,0-2.3-0.5-3.4-1.7V118c1.1-1.1,2.3-1.7,3.4-1.7c2,0,2.9,1.7,2.9,5.1V137.5z
	 M109.2,110.2c-2.5,0-4.8,1.4-7,4.1V97.7h-6.8v50.5h6.8v-3.6c2.3,2.8,4.6,4.2,7,4.2c2.7,0,4.5-1.4,5.4-4.2c0.5-1.6,0.7-4.1,0.7-7.6
	v-15c0-3.6-0.2-6-0.7-7.6C113.7,111.6,111.9,110.2,109.2,110.2"/>
<path d="M152,124.4c0,6.9-0.3,13.9-0.8,20.8c0,9.2-7.6,16.7-16.9,16.7c-12.7,0.5-25.6,0.8-38.8,0.8h-2.1h-2.1
	c-13.2,0-26.1-0.3-38.8-0.8c-9.3,0-16.9-7.5-16.9-16.7c-0.5-6.9-0.8-13.9-0.8-20.8l0,0c0-0.2,0-0.4,0-0.5c0-0.2,0-0.4,0-0.6l0,0
	c0-6.9,0.3-13.9,0.8-20.8c0-9.2,7.6-16.7,16.9-16.7C65.2,85.3,78.1,85,91.3,85h2.1h2.1c13.2,0,26.1,0.3,38.8,0.8
	c9.3,0,16.9,7.5,16.9,16.7c0.5,6.9,0.8,13.9,0.8,20.8l0,0c0,0.2,0,0.4,0,0.5C152,124,152,124.2,152,124.4L152,124.4z M59.6,23.4
	l5.5,20.2l5.2-20.2h7.8L68.8,54v20.8h-7.7V54c-0.7-3.7-2.2-9.1-4.7-16.3c-1.6-4.8-3.3-9.6-4.9-14.3H59.6z M79.7,49
	c0-4.1,0.7-7.1,2.2-9c1.9-2.6,4.6-3.9,8.1-3.9s6.2,1.3,8.1,3.9c1.5,1.9,2.2,4.9,2.2,9v13.4c0,4.1-0.7,7.1-2.2,9
	c-1.9,2.6-4.6,3.9-8.1,3.9s-6.2-1.3-8.1-3.9c-1.5-1.9-2.2-4.9-2.2-9V49z M106,36.5h6.9v28.2c0,1.6,0,2.5,0.1,2.7
	c0.2,1.1,0.7,1.6,1.6,1.6c1.4,0,2.9-1.1,4.4-3.2V36.5h6.9v38.3H119v-4.2c-2.8,3.2-5.4,4.7-7.9,4.7c-2.2,0-3.8-0.9-4.5-2.9
	c-0.4-1.2-0.6-3-0.6-5.7V36.5z M0,187h187V0H0V187z"/>
<path d="M134.2,125h-6.8v-3.5c0-3.5,1.1-5.2,3.4-5.2s3.4,1.7,3.4,5.2V125z M130.9,110.2c-3.5,0-6.2,1.3-8.2,3.9
	c-1.4,1.9-2.1,4.8-2.1,8.9v13.2c0,4,0.8,7,2.2,8.9c2,2.6,4.7,3.9,8.2,3.9s6.4-1.4,8.2-4.1c0.8-1.2,1.4-2.6,1.6-4.1
	c0.1-0.7,0.2-2.2,0.2-4.4v-1h-7c0,2.7-0.1,4.2-0.2,4.6c-0.4,1.8-1.4,2.7-3,2.7c-2.3,0-3.5-1.7-3.5-5.2v-6.7h13.6V123
	c0-4-0.7-7-2.1-8.9C137,111.4,134.3,110.2,130.9,110.2"/>
<path d="M90,42.3c-2.2,0-3.3,1.8-3.3,5.3v16.1c0,3.5,1.1,5.3,3.3,5.3c2.2,0,3.3-1.8,3.3-5.3V47.6C93.3,44.1,92.2,42.3,90,42.3"/>
</svg>
