<?xml version="1.0" encoding="utf-8"?>
<!-- Generator: Adobe Illustrator 22.1.0, SVG Export Plug-In . SVG Version: 6.00 Build 0)  -->
<svg version="1.1" id="Layer_1" xmlns="http://www.w3.org/2000/svg" xmlns:xlink="http://www.w3.org/1999/xlink" x="0px" y="0px"
	 viewBox="0 0 487.6 186.9" style="enable-background:new 0 0 487.6 186.9;" xml:space="preserve">
<path d="M0,0v186.9h487.6V0H0z M84,57.1c0-4.5,1.6-8.7,4.9-12.6c1.6-2,3.7-3.6,6.2-5c2.5-1.3,4.9-2,7.2-2.1c0.1,0.3,0.1,0.6,0.1,0.9
	c0,0.3,0,0.6,0,0.9c0,4.7-1.6,9-4.8,13.1c-3.9,4.9-8.4,7-13.5,6.5C84,58.5,84,58.2,84,57.9C84,57.7,84,57.4,84,57.1z M120.5,108
	c-0.2,0.7-0.5,1.4-0.8,2.1c-0.7,1.7-1.4,3.3-2.2,4.8c-0.8,1.5-1.7,2.9-2.5,4.2c-1.2,1.8-2.3,3.4-3.3,4.7c-1,1.3-1.9,2.3-2.8,3.1
	c-2.4,2.3-5,3.5-7.8,3.6c-1.9,0-4.3-0.6-7.3-1.9c-2.7-1.2-5.3-1.8-7.7-1.8c-2.7,0-5.4,0.6-8,1.8c-2.9,1.2-5.2,1.9-6.9,2
	c-2.7,0.1-5.4-1.1-8-3.7c-1.8-1.7-4-4.4-6.4-8c-2.7-4-5-8.7-6.7-14.1c-1.9-5.6-2.8-11.2-2.8-16.8c0-6.2,1.3-11.6,3.8-16.1
	c2-3.6,4.7-6.5,8-8.5c3.3-2.1,7-3.2,10.8-3.2c2.3,0,5.1,0.7,8.4,2.1s5.5,2.1,6.7,2.1c0.5,0,3-0.8,7.4-2.4c4.1-1.5,7.4-2.1,10-1.9
	c7.4,0.7,12.9,3.8,16.7,9.3c-6.7,4.2-10,10.2-9.8,17.8c0.1,5.9,2.1,10.8,6.1,14.8c1.8,1.8,3.9,3.2,6.1,4.2
	C121,106.6,120.8,107.3,120.5,108z M208.1,129.5h-12.8V85.3h-0.6l-15.4,35.1h-8.9l-15.5-35.1h-0.6v44.2h-12.7V61.2h14.5l18.5,42.3
	h0.4l18.5-42.3h14.6V129.5z M276.7,106.3c0,14.6-10.4,24.5-27.4,24.5c-17.1,0-27.4-9.9-27.4-24.5V61.2h14.2v43.1
	c0,9.2,5.4,14.2,13.3,14.2s13.2-5,13.2-14.2V61.2h14.2v45.1H276.7z M315.1,130.8c-19.7,0-26.1-11.2-26.3-20.9h13.7
	c0.4,5.1,4.9,9.6,13.4,9.6c7.9,0,12.1-3.6,12.1-8.9c0-4.6-3.4-6.9-10.2-8.4l-10.1-2.3c-9.4-2.1-17.3-7.5-17.3-19.1
	c0-13.4,11.2-20.8,25.4-20.8c15,0,25,8.4,25.2,20.4h-13.3c-0.3-4.8-4.2-9.3-12-9.3c-6.9,0-11.1,3.3-11.1,8.5c0,4,3.1,6.6,9.1,7.9
	l10.2,2.3c9.8,2.1,18.1,7,18.1,19.4C342,122.5,331.7,130.8,315.1,130.8z M370.4,129.5h-14.2V61.2h14.2V129.5z M440,85.6h-13.7
	c0-7-4.5-13.5-12.9-13.5c-8.5,0-14,6.4-14,19.6v7.7c0,13.2,5.5,19.3,14.1,19.3c8.4,0,12.8-5.8,12.8-12.9H440v1.5
	c0,12.4-9.7,23.6-26.7,23.6c-17.8,0-28.3-11.6-28.3-31.5v-7.7c0-20,10.6-31.6,28.4-31.6c16.6,0,26.7,11,26.7,24.2L440,85.6L440,85.6
	z"/>
</svg>
