<?xml version="1.0" encoding="utf-8"?>
<!-- Generator: Adobe Illustrator 22.1.0, SVG Export Plug-In . SVG Version: 6.00 Build 0)  -->
<svg version="1.1" id="Layer_1" xmlns="http://www.w3.org/2000/svg" xmlns:xlink="http://www.w3.org/1999/xlink" x="0px" y="0px"
	 viewBox="0 0 187.1 187" style="enable-background:new 0 0 187.1 187;" xml:space="preserve">
<style type="text/css">
	.st0{fill:#FFFFFF;}
</style>
<path class="st0" d="M138,95.1c0,23-18.7,41.7-41.7,41.7s-41.7-18.7-41.7-41.7s18.7-41.7,41.7-41.7C119.4,53.5,138,72.1,138,95.1"/>
<path class="st0" d="M142.6,70.6c3.9,7.3,6.1,15.7,6.1,24.6c0,28.9-23.4,52.4-52.4,52.4c-28.9,0-52.4-23.5-52.4-52.4
	c0-8.9,2.2-17.2,6.1-24.6H0v84.9C0,172.8,14.2,187,31.5,187h123.9c17.3,0,31.5-14.2,31.5-31.5V70.6H142.6z"/>
<path class="st0" d="M127.9,17.9c0-3.2,2.6-5.9,5.9-5.9h23c3.2,0,5.9,2.6,5.9,5.9v23c0,3.2-2.6,5.9-5.9,5.9h-23
	c-3.2,0-5.9-2.6-5.9-5.9V17.9z M96.4,42.8c14.9,0,28.4,6.3,37.9,16.2h52.8V31.5c0-17.3-14.2-31.5-31.5-31.5h-124
	C14.3,0,0.1,14.2,0.1,31.5V59h58.4C68,49,81.4,42.8,96.4,42.8"/>
</svg>
