<?xml version="1.0" encoding="utf-8"?>
<!-- Generator: Adobe Illustrator 22.1.0, SVG Export Plug-In . SVG Version: 6.00 Build 0)  -->
<svg version="1.1" id="Layer_1" xmlns="http://www.w3.org/2000/svg" xmlns:xlink="http://www.w3.org/1999/xlink" x="0px" y="0px"
	 viewBox="0 0 300 186.9" style="enable-background:new 0 0 300 186.9;" xml:space="preserve">
<path d="M142.4,139.3h-2.1v12.3h2c4.2,0,6.1-2.5,6.1-6.1C148.3,141.3,146.6,139.3,142.4,139.3"/>
<path d="M80.9,139.1c-3.2,0-4.6,2.8-4.6,6.4s1.3,6.4,4.6,6.4c3.2,0,4.6-2.8,4.6-6.4S84.1,139.1,80.9,139.1"/>
<path d="M198.4,139.1c-3.2,0-4.6,2.8-4.6,6.4s1.3,6.4,4.6,6.4c3.2,0,4.6-2.8,4.6-6.4S201.6,139.1,198.4,139.1"/>
<path d="M232.4,126.1c-0.5,0-74.5,0-74.5,0c-1.6-0.2-2.9-1.5-2.9-3.2V37.5c0-1.6,0.6-2.4,2.6-3.2c5.2-2,11.1-3.2,17.2-3.2
	c24.8,0,45.1,19,47.2,43.2c3.2-1.3,6.7-2.1,10.4-2.1c14.8,0,26.9,12,26.9,26.9C259.3,114.1,247.3,126.1,232.4,126.1 M238.3,155.5h-6
	v-20.1h6.3c5.7,0,10,2.7,10,10C248.6,152.5,243.5,155.5,238.3,155.5 M227.3,146.6c0,5.8-3,9.2-8.1,9.2c-4.8,0-8.1-3.3-8.1-9.1v-11.3
	h4v11.2c0,3.2,1.5,5.2,4.1,5.2s4.1-2,4.1-5.2v-11.3h4V146.6z M198.4,155.8c-5.5,0-8.7-4.2-8.7-10.3s3.2-10.3,8.7-10.3
	s8.7,4.2,8.7,10.3C207.1,151.5,203.9,155.8,198.4,155.8 M187.8,155.5h-12.1v-20.1h4v16.1h8L187.8,155.5L187.8,155.5z M164.9,151.8
	c1.8,0,2.9-0.8,3.9-2.6l3.4,2c-1.4,2.8-3.8,4.5-7.4,4.5c-5.2,0-8.8-4-8.8-10.3c0-6.1,3.7-10.3,8.9-10.3c3.8,0,6.1,1.8,7.3,4.4
	l-3.7,1.7c-0.7-1.4-1.9-2.2-3.7-2.2c-3,0-4.7,2.6-4.7,6.4C160.2,149,161.9,151.8,164.9,151.8 M152.4,123L152.4,123
	c0,1.6-1.4,2.9-3,2.9s-2.9-1.3-3-2.9l-1.2-22l1.2-60.6c0-1.6,1.4-3,3-3s2.9,1.3,3,2.9l1.3,60.6L152.4,123z M142.2,155.5h-6v-20.1
	h6.3c5.7,0,10,2.7,10,10C152.5,152.5,147.4,155.5,142.2,155.5 M133.7,123.4L133.7,123.4c0,1.4-1.2,2.6-2.6,2.6s-2.6-1.1-2.6-2.6
	l-1.2-22.5l1.2-46.6c0-1.4,1.2-2.6,2.6-2.6s2.6,1.1,2.6,2.6L135,101L133.7,123.4z M131.1,155.5h-3.6l-7.4-10.9
	c-0.5-0.8-1.1-1.8-1.4-2.3c0,0.7,0.1,3.3,0.1,4.4v8.8h-4v-20.1h3.8l7.1,10.6c0.5,0.8,1.1,1.7,1.4,2.3c0-0.8-0.1-3.3-0.1-4.4v-8.5h4
	v20.1L131.1,155.5L131.1,155.5z M112.8,126c-1.2,0-2.2-1-2.2-2.2l-1.4-22.8l1.4-49.7c0-1.2,1-2.2,2.2-2.2s2.2,1,2.2,2.2l1.6,49.7
	l-1.6,22.8l0,0C115,125,114,126,112.8,126 M109.8,146.6c0,5.8-3,9.2-8.1,9.2c-4.8,0-8.1-3.3-8.1-9.1v-11.3h4v11.2
	c0,3.2,1.5,5.2,4.1,5.2s4.1-2,4.1-5.2v-11.3h4V146.6z M91.5,101l1.6-44.4c0-1,0.9-1.8,1.8-1.8c1,0,1.8,0.8,1.8,1.8l1.8,44.4
	l-1.8,23.2l0,0l0,0l0,0c-0.1,1-0.9,1.8-1.8,1.8c-1,0-1.8-0.8-1.8-1.8L91.5,101z M87.7,124.3L87.7,124.3c0,0.9-0.8,1.6-1.7,1.6
	s-1.6-0.7-1.7-1.6L82.6,101l1.7-36.1c0-0.9,0.8-1.6,1.7-1.6s1.6,0.7,1.7,1.6l1.9,36.1L87.7,124.3z M80.9,155.8
	c-5.5,0-8.7-4.2-8.7-10.3s3.2-10.3,8.7-10.3s8.7,4.2,8.7,10.3C89.6,151.5,86.4,155.8,80.9,155.8 M69.8,124.1
	c-0.1,0.7-0.6,1.3-1.3,1.3s-1.2-0.5-1.3-1.3l-1.9-23.2L67.2,77c0.1-0.7,0.6-1.3,1.3-1.3s1.2,0.5,1.3,1.3l2.2,23.9L69.8,124.1z
	 M61.2,155.8c-3.4,0-6.3-1.4-7.8-3.6l2.9-2.6c1.4,1.6,3.2,2.3,5.1,2.3c2.4,0,3.5-0.7,3.5-2.2c0-1.3-0.7-1.9-4.5-2.7
	c-3.7-0.9-6.3-2-6.3-6c0-3.6,3.2-5.9,7.2-5.9c3.1,0,5.4,1.2,7.3,3.2l-2.9,2.8c-1.3-1.3-2.7-2.1-4.6-2.1c-2.1,0-2.9,0.9-2.9,1.8
	c0,1.3,0.9,1.7,4,2.4c3.2,0.7,6.7,1.8,6.7,6.2C69.1,153.2,66.7,155.8,61.2,155.8 M51.3,121c-0.5,0-0.8-0.4-0.9-0.9l-2.2-19.2
	l2.2-19.6c0.1-0.5,0.4-0.9,0.9-0.9s0.8,0.4,0.9,0.9l2.4,19.6l-2.4,19.2C52.1,120.7,51.7,121,51.3,121 M44.1,112.9
	c-0.1,0.5-0.4,0.9-0.9,0.9s-0.8-0.4-0.9-0.9L40.7,101l1.6-12.1c0.1-0.5,0.4-0.9,0.9-0.9c0.4,0,0.8,0.3,0.9,0.9L46,101L44.1,112.9z
	 M58.8,77.7c0.1-0.6,0.5-1.1,1.1-1.1s1,0.4,1.1,1.1l2.3,23.3L61,123.4c-0.1,0.6-0.5,1.1-1.1,1.1s-1-0.5-1.1-1.1l-2-22.4L58.8,77.7z
	 M75.8,78.8c0-0.8,0.7-1.5,1.5-1.5s1.4,0.6,1.5,1.4l2.1,22.2l-2.1,23.3l0,0c-0.1,0.8-0.7,1.4-1.5,1.4s-1.4-0.6-1.5-1.4L74,100.9
	L75.8,78.8z M101.8,52.9c0-1.1,0.9-2,2-2s2,0.9,2,2l1.7,48.1l-1.7,23l0,0c0,1.1-0.9,2-2,2s-2-0.9-2-2l-1.5-23L101.8,52.9z
	 M119.5,52.5c0-1.3,1.1-2.4,2.4-2.4c1.3,0,2.4,1,2.4,2.4l1.4,48.4l-1.4,22.6l0,0c0,1.3-1.1,2.4-2.4,2.4c-1.3,0-2.4-1.1-2.4-2.4
	l-1.3-22.6L119.5,52.5z M137.5,45.5c0-1.5,1.3-2.8,2.8-2.8s2.8,1.2,2.8,2.8l1.2,55.5l-1.2,22.3l0,0c0,1.5-1.3,2.8-2.8,2.8
	s-2.7-1.2-2.8-2.8l-1-22.3L137.5,45.5z M0,186.9h300V0H0V186.9z"/>
<path d="M238.5,139.3h-2.1v12.3h2c4.2,0,6.1-2.5,6.1-6.1C244.4,141.3,242.7,139.3,238.5,139.3"/>
</svg>
